<?xml version="1.0" encoding="UTF-8" standalone="no"?>
<!DOCTYPE svg PUBLIC "-//W3C//DTD SVG 1.1//EN"
 "http://www.w3.org/Graphics/SVG/1.1/DTD/svg11.dtd">
<!-- Generated by graphviz version 12.1.1 (20240910.0053)
 -->
<!-- Title: G Pages: 1 -->
<svg width="270pt" height="360pt"
 viewBox="0.00 0.00 269.73 360.25" xmlns="http://www.w3.org/2000/svg" xmlns:xlink="http://www.w3.org/1999/xlink">
<style>
@media (prefers-color-scheme: dark) {
  svg { background: #0f172a; }
  polygon[fill="#fbfbf9"] { fill: #0f172a; }
  path[fill="#ffffff"] { fill: #1e293b; }
  path[fill="#fff7ed"] { fill: #1e1b14; }
  path[fill="#ecfdf5"] { fill: #0f1f1a; }
  path[fill="#eef2ff"] { fill: #1a1f2e; }
  path[fill="#fef2f2"] { fill: #1f1414; }
  text { fill: #e2e8f0 !important; }
}
</style>
<g id="graph0" class="graph" transform="scale(1 1) rotate(0) translate(4 356.25)">
<title>G</title>
<polygon fill="#fbfbf9" stroke="none" points="-4,4 -4,-356.25 265.73,-356.25 265.73,4 -4,4"/>
<text text-anchor="middle" x="130.86" y="-334.95" font-family="PingFang SC" font-size="14.00">上下文压缩 (Compaction) 流程</text>
<!-- Events -->
<g id="node1" class="node">
<title>Events</title>
<path fill="#eef2ff" stroke="#7c3aed" d="M185.35,-324C185.35,-324 88,-324 88,-324 82,-324 76,-318 76,-312 76,-312 76,-300 76,-300 76,-294 82,-288 88,-288 88,-288 185.35,-288 185.35,-288 191.35,-288 197.35,-294 197.35,-300 197.35,-300 197.35,-312 197.35,-312 197.35,-318 191.35,-324 185.35,-324"/>
<text text-anchor="middle" x="136.68" y="-303.43" font-family="PingFang SC" font-size="11.00">完整 session events</text>
</g>
<!-- Plan -->
<g id="node2" class="node">
<title>Plan</title>
<path fill="#eef2ff" stroke="#7c3aed" d="M137.22,-252C137.22,-252 54.13,-252 54.13,-252 48.12,-252 42.12,-246 42.12,-240 42.12,-240 42.12,-228 42.12,-228 42.12,-222 48.12,-216 54.12,-216 54.12,-216 137.22,-216 137.22,-216 143.22,-216 149.22,-222 149.22,-228 149.22,-228 149.22,-240 149.22,-240 149.22,-246 143.22,-252 137.22,-252"/>
<text text-anchor="middle" x="95.67" y="-231.43" font-family="PingFang SC" font-size="11.00">compaction plan</text>
</g>
<!-- Events&#45;&gt;Plan -->
<g id="edge1" class="edge">
<title>Events&#45;&gt;Plan</title>
<path fill="none" stroke="#475569" stroke-width="1.2" d="M126.54,-287.7C122.02,-279.98 116.59,-270.71 111.56,-262.11"/>
<polygon fill="#475569" stroke="#475569" stroke-width="1.2" points="114.69,-260.53 106.61,-253.67 108.65,-264.07 114.69,-260.53"/>
</g>
<!-- Tail -->
<g id="node5" class="node">
<title>Tail</title>
<path fill="#eef2ff" stroke="#7c3aed" d="M249.73,-180C249.73,-180 163.62,-180 163.62,-180 157.62,-180 151.62,-174 151.62,-168 151.62,-168 151.62,-156 151.62,-156 151.62,-150 157.62,-144 163.62,-144 163.62,-144 249.73,-144 249.73,-144 255.73,-144 261.73,-150 261.73,-156 261.73,-156 261.73,-168 261.73,-168 261.73,-174 255.73,-180 249.73,-180"/>
<text text-anchor="middle" x="206.68" y="-159.43" font-family="PingFang SC" font-size="11.00">较新的 tail events</text>
</g>
<!-- Events&#45;&gt;Tail -->
<g id="edge5" class="edge">
<title>Events&#45;&gt;Tail</title>
<path fill="none" stroke="#475569" stroke-width="1.2" d="M145.26,-287.59C157.18,-263.4 178.89,-219.36 193.04,-190.65"/>
<polygon fill="#475569" stroke="#475569" stroke-width="1.2" points="196.15,-192.26 197.44,-181.74 189.88,-189.16 196.15,-192.26"/>
</g>
<!-- Boundary -->
<g id="node3" class="node">
<title>Boundary</title>
<path fill="#eef2ff" stroke="#7c3aed" d="M121.35,-180C121.35,-180 12,-180 12,-180 6,-180 0,-174 0,-168 0,-168 0,-156 0,-156 0,-150 6,-144 12,-144 12,-144 121.35,-144 121.35,-144 127.35,-144 133.35,-150 133.35,-156 133.35,-156 133.35,-168 133.35,-168 133.35,-174 127.35,-180 121.35,-180"/>
<text text-anchor="middle" x="66.67" y="-159.43" font-family="PingFang SC" font-size="11.00">compaction boundary</text>
</g>
<!-- Plan&#45;&gt;Boundary -->
<g id="edge2" class="edge">
<title>Plan&#45;&gt;Boundary</title>
<path fill="none" stroke="#475569" stroke-width="1.2" d="M88.51,-215.7C85.42,-208.24 81.72,-199.32 78.26,-190.97"/>
<polygon fill="#475569" stroke="#475569" stroke-width="1.2" points="81.52,-189.68 74.46,-181.78 75.05,-192.36 81.52,-189.68"/>
</g>
<!-- Checkpoint -->
<g id="node4" class="node">
<title>Checkpoint</title>
<path fill="#eef2ff" stroke="#7c3aed" d="M140.22,-108C140.22,-108 45.13,-108 45.13,-108 39.12,-108 33.12,-102 33.12,-96 33.12,-96 33.12,-84 33.12,-84 33.12,-78 39.12,-72 45.12,-72 45.12,-72 140.22,-72 140.22,-72 146.22,-72 152.22,-78 152.22,-84 152.22,-84 152.22,-96 152.22,-96 152.22,-102 146.22,-108 140.22,-108"/>
<text text-anchor="middle" x="92.67" y="-87.42" font-family="PingFang SC" font-size="11.00">context checkpoint</text>
</g>
<!-- Boundary&#45;&gt;Checkpoint -->
<g id="edge3" class="edge">
<title>Boundary&#45;&gt;Checkpoint</title>
<path fill="none" stroke="#475569" stroke-width="1.2" d="M73.1,-143.7C75.87,-136.24 79.18,-127.32 82.29,-118.97"/>
<polygon fill="#475569" stroke="#475569" stroke-width="1.2" points="85.49,-120.4 85.69,-109.81 78.93,-117.96 85.49,-120.4"/>
</g>
<!-- History -->
<g id="node6" class="node">
<title>History</title>
<path fill="#ecfdf5" stroke="#059669" d="M194.35,-36C194.35,-36 79,-36 79,-36 73,-36 67,-30 67,-24 67,-24 67,-12 67,-12 67,-6 73,0 79,0 79,0 194.35,0 194.35,0 200.35,0 206.35,-6 206.35,-12 206.35,-12 206.35,-24 206.35,-24 206.35,-30 200.35,-36 194.35,-36"/>
<text text-anchor="middle" x="136.68" y="-15.43" font-family="PingFang SC" font-size="11.00">投影后的 model history</text>
</g>
<!-- Checkpoint&#45;&gt;History -->
<g id="edge4" class="edge">
<title>Checkpoint&#45;&gt;History</title>
<path fill="none" stroke="#475569" stroke-width="1.2" d="M103.55,-71.7C108.45,-63.9 114.36,-54.51 119.81,-45.83"/>
<polygon fill="#475569" stroke="#475569" stroke-width="1.2" points="122.6,-47.97 124.96,-37.64 116.67,-44.25 122.6,-47.97"/>
</g>
<!-- Tail&#45;&gt;History -->
<g id="edge6" class="edge">
<title>Tail&#45;&gt;History</title>
<path fill="none" stroke="#475569" stroke-width="1.2" d="M198.09,-143.59C186.17,-119.4 164.46,-75.36 150.31,-46.65"/>
<polygon fill="#475569" stroke="#475569" stroke-width="1.2" points="153.47,-45.16 145.91,-37.74 147.2,-48.26 153.47,-45.16"/>
</g>
</g>
</svg>
